<svg xmlns="http://www.w3.org/2000/svg" width="430" height="430" style="width:100%;height:100%;transform:translate3d(0,0,0);content-visibility:visible" viewBox="0 0 430 430"><defs><clipPath id="a"><path d="M0 0h430v430H0z"/></clipPath><clipPath id="g"><path d="M0 0h430v430H0z"/></clipPath><clipPath id="f"><path d="M0 0h430v430H0z"/></clipPath><clipPath id="e"><path d="M0 0h430v430H0z"/></clipPath><clipPath id="d"><path d="M0 0h430v430H0z"/></clipPath><clipPath id="c"><path d="M0 0h430v430H0z"/></clipPath><clipPath id="b"><path d="M0 0h430v430H0z"/></clipPath></defs><g fill="none" clip-path="url(#a)"><g clip-path="url(#b)" style="display:none"><path class="secondary"/><path class="primary"/></g><g clip-path="url(#c)" style="display:none"><path class="secondary"/><path class="primary"/></g><g clip-path="url(#d)" style="display:none"><path class="secondary" style="display:none"/><g style="display:none"><path class="secondary"/><path class="primary"/></g></g><g stroke-linecap="round" stroke-linejoin="round" clip-path="url(#e)" style="display:block"><path stroke="#07A889" stroke-width="12.6" d="M0 0" class="secondary" style="display:block" transform="translate(215 215)"/><path stroke="#121330" stroke-width="3.65" d="M-31.669 6.468c-1.077-3.333-1.708-6.877-1.708-10.573 0-19.161 16.15-34.551 35.592-33.299 16.483 1.061 29.883 14.364 31.07 30.838.31 4.3-.235 8.431-1.383 12.286C26.544 23.707.003 50.2.003 50.2S-24.979 27.166-31.669 6.468" class="primary" style="display:block" transform="matrix(3.5 0 0 3.5 214.988 197.5)"/><path stroke="#07A889" stroke-width="3.6" d="M15.704-4.103C15.704 4.57 8.673 11.6 0 11.6S-15.704 4.57-15.704-4.103-8.673-19.807 0-19.807s15.704 7.031 15.704 15.704" class="secondary" style="display:block" transform="matrix(3.5 0 0 3.5 214.988 197.5)"/></g><g clip-path="url(#f)" style="display:none"><path class="primary" style="display:none"/><path class="secondary" style="display:none"/></g><g clip-path="url(#g)" style="display:none"><path class="secondary" style="display:none"/><path class="primary" style="display:none"/><path class="secondary" style="display:none"/></g></g></svg>